<svg id="Capa_1" data-name="Capa 1" xmlns="http://www.w3.org/2000/svg" viewBox="0 0 283.38 283.46"><defs><style>.cls-1{fill:#fff;}</style></defs><title>instagram</title><path class="cls-1" d="M-178.25,652.1C-256.93,652-319.62,588.4-319.4,509c.22-78.1,64.3-140.5,144.11-140.34,76.67.16,139.54,65,139.27,143.63C-36.29,589.36-100.25,652.24-178.25,652.1Zm-90-141.44c0,14.31-.48,28.64.11,42.93,1,25.33,20.08,45.88,45.31,46.84,30.09,1.15,60.28,1.17,90.37,0,25-1,44.41-21.26,45.1-46.18q1.2-43.65,0-87.37c-.65-25.25-20.23-45.55-45.58-46.5-29.59-1.11-59.29-1.24-88.88-.09-26.69,1-45.56,21.58-46.38,48.18C-268.62,482.52-268.26,496.59-268.28,510.66Z" transform="translate(319.4 -368.64)"/><path class="cls-1" d="M-103.45,509.67c0,15.55,1.12,31.19-.3,46.61-1.49,16.23-9.76,25.74-25.75,26.76A891.4,891.4,0,0,1-222,584.52c-18.58-.75-28.06-11.17-29.14-29.65-1.68-28.79-2.24-57.72-1.44-86.53.52-19,11.55-30.2,31.25-31.28,29-1.6,58.23-1.81,87.28-.67,19.38.76,28.8,11.61,30,31.13.87,14,.17,28.09.17,42.15Zm-122.8-.63c-.09,28.81,20.35,50.94,47.09,51,29,.06,50-19.88,50.31-47.63.29-28.69-20.51-51.74-46.61-51.64C-204.61,460.88-226.17,481.37-226.25,509Zm97.38-57.42c-5.41,0-10.79,5.15-10.81,10.43a10.86,10.86,0,0,0,10.59,10.5,10.44,10.44,0,0,0,10.23-9.91C-118.72,457-123.54,451.66-128.87,451.62Z" transform="translate(319.4 -368.64)"/><path class="cls-1" d="M-145.81,510.92c.05,18.8-13.22,32.15-32.14,32.35-17.72.18-31.66-14.29-31.8-33-.14-19,13.17-31.86,33.11-32C-158.93,478.06-145.87,491.92-145.81,510.92Z" transform="translate(319.4 -368.64)"/></svg>